<?xml version="1.0" encoding="UTF-8"?>
<svg version="1.1" fill="currentColor" viewBox="0 0 24 24" xmlns="http://www.w3.org/2000/svg">
	<path d="m12 20q3.35 0 5.675-2.325t2.325-5.675-2.325-5.675-5.675-2.325q-1.725 0-3.3 0.712-1.575 0.712-2.7 2.038v-1.75q0-0.425-0.288-0.712t-0.712-0.288-0.713 0.288-0.287 0.712v5q0 0.425 0.288 0.713t0.712 0.287h5q0.425 0 0.712-0.288t0.288-0.712-0.288-0.712-0.712-0.288h-3.2q0.8-1.4 2.187-2.2 1.387-0.8 3.013-0.8 2.5 0 4.25 1.75t1.75 4.25-1.75 4.25-4.25 1.75q-1.7 0-3.113-0.862-1.413-0.862-2.187-2.313-0.2-0.35-0.563-0.487t-0.737-0.013q-0.4 0.125-0.575 0.525t0.025 0.75q1.025 2 2.925 3.2t4.225 1.2"/>
</svg>